<?xml version="1.0" encoding="UTF-8" standalone="no"?>
<!DOCTYPE svg PUBLIC "-//W3C//DTD SVG 1.1//EN"
 "http://www.w3.org/Graphics/SVG/1.1/DTD/svg11.dtd">
<!-- Generated by graphviz version 2.40.1 (0)
 -->
<!-- Title: snakemake_dag Pages: 1 -->
<svg width="1730pt" height="928pt"
 viewBox="0.00 0.00 1729.50 928.00" xmlns="http://www.w3.org/2000/svg" xmlns:xlink="http://www.w3.org/1999/xlink">
<g id="graph0" class="graph" transform="scale(1 1) rotate(0) translate(4 924)">
<title>snakemake_dag</title>
<polygon fill="#ffffff" stroke="transparent" points="-4,4 -4,-924 1725.5,-924 1725.5,4 -4,4"/>
<!-- 0 -->
<g id="node1" class="node">
<title>0</title>
<path fill="none" stroke="#d87556" stroke-width="2" d="M195,-252C195,-252 153,-252 153,-252 147,-252 141,-246 141,-240 141,-240 141,-228 141,-228 141,-222 147,-216 153,-216 153,-216 195,-216 195,-216 201,-216 207,-222 207,-228 207,-228 207,-240 207,-240 207,-246 201,-252 195,-252"/>
<text text-anchor="middle" x="174" y="-231.5" font-family="sans" font-size="10.00" fill="#000000">all_per_sim</text>
</g>
<!-- 1 -->
<g id="node2" class="node">
<title>1</title>
<path fill="none" stroke="#d8d356" stroke-width="2" d="M121,-324C121,-324 91,-324 91,-324 85,-324 79,-318 79,-312 79,-312 79,-300 79,-300 79,-294 85,-288 91,-288 91,-288 121,-288 121,-288 127,-288 133,-294 133,-300 133,-300 133,-312 133,-312 133,-318 127,-324 121,-324"/>
<text text-anchor="middle" x="106" y="-303.5" font-family="sans" font-size="10.00" fill="#000000">blast</text>
</g>
<!-- 1&#45;&gt;0 -->
<g id="edge1" class="edge">
<title>1&#45;&gt;0</title>
<path fill="none" stroke="#c0c0c0" stroke-width="2" d="M123.1593,-287.8314C131.1511,-279.3694 140.8038,-269.1489 149.5416,-259.8971"/>
<polygon fill="#c0c0c0" stroke="#c0c0c0" stroke-width="2" points="152.288,-262.0866 156.6097,-252.4133 147.1989,-257.2802 152.288,-262.0866"/>
</g>
<!-- 2 -->
<g id="node3" class="node">
<title>2</title>
<path fill="none" stroke="#d88d56" stroke-width="2" d="M84,-920C84,-920 12,-920 12,-920 6,-920 0,-914 0,-908 0,-908 0,-896 0,-896 0,-890 6,-884 12,-884 12,-884 84,-884 84,-884 90,-884 96,-890 96,-896 96,-896 96,-908 96,-908 96,-914 90,-920 84,-920"/>
<text text-anchor="middle" x="48" y="-905" font-family="sans" font-size="10.00" fill="#000000">ancestral_genome</text>
<text text-anchor="middle" x="48" y="-894" font-family="sans" font-size="10.00" fill="#000000">ID: 2</text>
</g>
<!-- 2&#45;&gt;1 -->
<g id="edge3" class="edge">
<title>2&#45;&gt;1</title>
<path fill="none" stroke="#c0c0c0" stroke-width="2" d="M39.5048,-883.9544C27.4956,-856.7448 7,-803.3044 7,-755.5 7,-755.5 7,-755.5 7,-455 7,-404.5377 46.8802,-358.1094 76.0176,-330.9222"/>
<polygon fill="#c0c0c0" stroke="#c0c0c0" stroke-width="2" points="78.4783,-333.4156 83.5354,-324.1055 73.7762,-328.2299 78.4783,-333.4156"/>
</g>
<!-- 3 -->
<g id="node4" class="node">
<title>3</title>
<path fill="none" stroke="#68d856" stroke-width="2" d="M95,-622C95,-622 47,-622 47,-622 41,-622 35,-616 35,-610 35,-610 35,-598 35,-598 35,-592 41,-586 47,-586 47,-586 95,-586 95,-586 101,-586 107,-592 107,-598 107,-598 107,-610 107,-610 107,-616 101,-622 95,-622"/>
<text text-anchor="middle" x="71" y="-607" font-family="sans" font-size="10.00" fill="#000000">makeblastdb</text>
<text text-anchor="middle" x="71" y="-596" font-family="sans" font-size="10.00" fill="#000000">SID: 2</text>
</g>
<!-- 2&#45;&gt;3 -->
<g id="edge6" class="edge">
<title>2&#45;&gt;3</title>
<path fill="none" stroke="#c0c0c0" stroke-width="2" d="M49.4041,-883.8074C53.2777,-833.6199 64.136,-692.9329 68.8124,-632.3436"/>
<polygon fill="#c0c0c0" stroke="#c0c0c0" stroke-width="2" points="72.305,-632.5729 69.585,-622.3332 65.3258,-632.0342 72.305,-632.5729"/>
</g>
<!-- 10 -->
<g id="node11" class="node">
<title>10</title>
<path fill="none" stroke="#56a9d8" stroke-width="2" d="M143,-848C143,-848 113,-848 113,-848 107,-848 101,-842 101,-836 101,-836 101,-824 101,-824 101,-818 107,-812 113,-812 113,-812 143,-812 143,-812 149,-812 155,-818 155,-824 155,-824 155,-836 155,-836 155,-842 149,-848 143,-848"/>
<text text-anchor="middle" x="128" y="-827.5" font-family="sans" font-size="10.00" fill="#000000">slim</text>
</g>
<!-- 2&#45;&gt;10 -->
<g id="edge13" class="edge">
<title>2&#45;&gt;10</title>
<path fill="none" stroke="#c0c0c0" stroke-width="2" d="M68.1874,-883.8314C77.8514,-875.1337 89.5796,-864.5783 100.0816,-855.1265"/>
<polygon fill="#c0c0c0" stroke="#c0c0c0" stroke-width="2" points="102.7275,-857.454 107.8191,-848.1628 98.0447,-852.251 102.7275,-857.454"/>
</g>
<!-- 3&#45;&gt;1 -->
<g id="edge4" class="edge">
<title>3&#45;&gt;1</title>
<path fill="none" stroke="#c0c0c0" stroke-width="2" d="M71.523,-585.8075C72.9209,-545.0852 77.6692,-443.6035 92,-360 93.4496,-351.5431 95.5726,-342.4723 97.7293,-334.2253"/>
<polygon fill="#c0c0c0" stroke="#c0c0c0" stroke-width="2" points="101.174,-334.8967 100.4309,-324.328 94.4211,-333.0533 101.174,-334.8967"/>
</g>
<!-- 4 -->
<g id="node5" class="node">
<title>4</title>
<path fill="none" stroke="#56b1d8" stroke-width="2" d="M169,-398.5C169,-398.5 113,-398.5 113,-398.5 107,-398.5 101,-392.5 101,-386.5 101,-386.5 101,-374.5 101,-374.5 101,-368.5 107,-362.5 113,-362.5 113,-362.5 169,-362.5 169,-362.5 175,-362.5 181,-368.5 181,-374.5 181,-374.5 181,-386.5 181,-386.5 181,-392.5 175,-398.5 169,-398.5"/>
<text text-anchor="middle" x="141" y="-378" font-family="sans" font-size="10.00" fill="#000000">seqkit_rename</text>
</g>
<!-- 4&#45;&gt;1 -->
<g id="edge5" class="edge">
<title>4&#45;&gt;1</title>
<path fill="none" stroke="#c0c0c0" stroke-width="2" d="M132.5275,-362.4656C128.4307,-353.7453 123.4249,-343.0901 118.87,-333.3948"/>
<polygon fill="#c0c0c0" stroke="#c0c0c0" stroke-width="2" points="121.9358,-331.6892 114.5158,-324.1265 115.6002,-334.6657 121.9358,-331.6892"/>
</g>
<!-- 5 -->
<g id="node6" class="node">
<title>5</title>
<path fill="none" stroke="#568ad8" stroke-width="2" d="M163,-473C163,-473 119,-473 119,-473 113,-473 107,-467 107,-461 107,-461 107,-449 107,-449 107,-443 113,-437 119,-437 119,-437 163,-437 163,-437 169,-437 175,-443 175,-449 175,-449 175,-461 175,-461 175,-467 169,-473 163,-473"/>
<text text-anchor="middle" x="141" y="-452.5" font-family="sans" font-size="10.00" fill="#000000">unitig_caller</text>
</g>
<!-- 5&#45;&gt;4 -->
<g id="edge7" class="edge">
<title>5&#45;&gt;4</title>
<path fill="none" stroke="#c0c0c0" stroke-width="2" d="M141,-436.9656C141,-428.5178 141,-418.2542 141,-408.8064"/>
<polygon fill="#c0c0c0" stroke="#c0c0c0" stroke-width="2" points="144.5001,-408.6265 141,-398.6265 137.5001,-408.6265 144.5001,-408.6265"/>
</g>
<!-- 6 -->
<g id="node7" class="node">
<title>6</title>
<path fill="none" stroke="#70d856" stroke-width="2" d="M157,-547.5C157,-547.5 127,-547.5 127,-547.5 121,-547.5 115,-541.5 115,-535.5 115,-535.5 115,-523.5 115,-523.5 115,-517.5 121,-511.5 127,-511.5 127,-511.5 157,-511.5 157,-511.5 163,-511.5 169,-517.5 169,-523.5 169,-523.5 169,-535.5 169,-535.5 169,-541.5 163,-547.5 157,-547.5"/>
<text text-anchor="middle" x="142" y="-527" font-family="sans" font-size="10.00" fill="#000000">kmc</text>
</g>
<!-- 6&#45;&gt;5 -->
<g id="edge8" class="edge">
<title>6&#45;&gt;5</title>
<path fill="none" stroke="#c0c0c0" stroke-width="2" d="M141.7579,-511.4656C141.6445,-503.0178 141.5068,-492.7542 141.38,-483.3064"/>
<polygon fill="#c0c0c0" stroke="#c0c0c0" stroke-width="2" points="144.8773,-483.0786 141.2433,-473.1265 137.8779,-483.1726 144.8773,-483.0786"/>
</g>
<!-- 7 -->
<g id="node8" class="node">
<title>7</title>
<path fill="none" stroke="#a7d856" stroke-width="2" d="M167,-622C167,-622 137,-622 137,-622 131,-622 125,-616 125,-610 125,-610 125,-598 125,-598 125,-592 131,-586 137,-586 137,-586 167,-586 167,-586 173,-586 179,-592 179,-598 179,-598 179,-610 179,-610 179,-616 173,-622 167,-622"/>
<text text-anchor="middle" x="152" y="-601.5" font-family="sans" font-size="10.00" fill="#000000">fastp</text>
</g>
<!-- 7&#45;&gt;6 -->
<g id="edge9" class="edge">
<title>7&#45;&gt;6</title>
<path fill="none" stroke="#c0c0c0" stroke-width="2" d="M149.5793,-585.9656C148.4453,-577.5178 147.0677,-567.2542 145.7995,-557.8064"/>
<polygon fill="#c0c0c0" stroke="#c0c0c0" stroke-width="2" points="149.2324,-557.072 144.4331,-547.6265 142.2946,-558.0033 149.2324,-557.072"/>
</g>
<!-- 8 -->
<g id="node9" class="node">
<title>8</title>
<path fill="none" stroke="#78d856" stroke-width="2" d="M155,-696.5C155,-696.5 125,-696.5 125,-696.5 119,-696.5 113,-690.5 113,-684.5 113,-684.5 113,-672.5 113,-672.5 113,-666.5 119,-660.5 125,-660.5 125,-660.5 155,-660.5 155,-660.5 161,-660.5 167,-666.5 167,-672.5 167,-672.5 167,-684.5 167,-684.5 167,-690.5 161,-696.5 155,-696.5"/>
<text text-anchor="middle" x="140" y="-676" font-family="sans" font-size="10.00" fill="#000000">iss</text>
</g>
<!-- 8&#45;&gt;7 -->
<g id="edge10" class="edge">
<title>8&#45;&gt;7</title>
<path fill="none" stroke="#c0c0c0" stroke-width="2" d="M142.9049,-660.4656C144.2802,-651.927 145.9544,-641.5333 147.4896,-632.002"/>
<polygon fill="#c0c0c0" stroke="#c0c0c0" stroke-width="2" points="150.9454,-632.5559 149.0803,-622.1265 144.0345,-631.4426 150.9454,-632.5559"/>
</g>
<!-- 9 -->
<g id="node10" class="node">
<title>9</title>
<path fill="none" stroke="#56b9d8" stroke-width="2" d="M168,-776C168,-776 88,-776 88,-776 82,-776 76,-770 76,-764 76,-764 76,-747 76,-747 76,-741 82,-735 88,-735 88,-735 168,-735 168,-735 174,-735 180,-741 180,-747 180,-747 180,-764 180,-764 180,-770 174,-776 168,-776"/>
<text text-anchor="middle" x="128" y="-764" font-family="sans" font-size="10.00" fill="#000000">seqkit_get_samples</text>
<text text-anchor="middle" x="128" y="-753" font-family="sans" font-size="10.00" fill="#000000">PID: 0</text>
<text text-anchor="middle" x="128" y="-742" font-family="sans" font-size="10.00" fill="#000000">SID: 2</text>
</g>
<!-- 9&#45;&gt;8 -->
<g id="edge11" class="edge">
<title>9&#45;&gt;8</title>
<path fill="none" stroke="#c0c0c0" stroke-width="2" d="M131.2158,-734.8654C132.5676,-726.1912 134.1617,-715.9623 135.6183,-706.6158"/>
<polygon fill="#c0c0c0" stroke="#c0c0c0" stroke-width="2" points="139.1025,-706.988 137.1842,-696.5683 132.186,-705.91 139.1025,-706.988"/>
</g>
<!-- 10&#45;&gt;9 -->
<g id="edge12" class="edge">
<title>10&#45;&gt;9</title>
<path fill="none" stroke="#c0c0c0" stroke-width="2" d="M128,-811.9656C128,-804.3118 128,-795.1674 128,-786.4898"/>
<polygon fill="#c0c0c0" stroke="#c0c0c0" stroke-width="2" points="131.5001,-786.2678 128,-776.2679 124.5001,-786.2679 131.5001,-786.2678"/>
</g>
<!-- 12 -->
<g id="node13" class="node">
<title>12</title>
<path fill="none" stroke="#d8cb56" stroke-width="2" d="M291.5,-773.5C291.5,-773.5 210.5,-773.5 210.5,-773.5 204.5,-773.5 198.5,-767.5 198.5,-761.5 198.5,-761.5 198.5,-749.5 198.5,-749.5 198.5,-743.5 204.5,-737.5 210.5,-737.5 210.5,-737.5 291.5,-737.5 291.5,-737.5 297.5,-737.5 303.5,-743.5 303.5,-749.5 303.5,-749.5 303.5,-761.5 303.5,-761.5 303.5,-767.5 297.5,-773.5 291.5,-773.5"/>
<text text-anchor="middle" x="251" y="-753" font-family="sans" font-size="10.00" fill="#000000">bcftools_remove_ref</text>
</g>
<!-- 10&#45;&gt;12 -->
<g id="edge15" class="edge">
<title>10&#45;&gt;12</title>
<path fill="none" stroke="#c0c0c0" stroke-width="2" d="M155.2977,-813.466C172.0846,-803.2983 193.8566,-790.1112 212.3923,-778.8843"/>
<polygon fill="#c0c0c0" stroke="#c0c0c0" stroke-width="2" points="214.4556,-781.7266 221.1957,-773.5522 210.8291,-775.7393 214.4556,-781.7266"/>
</g>
<!-- 11 -->
<g id="node12" class="node">
<title>11</title>
<path fill="none" stroke="#d8bc56" stroke-width="2" d="M291,-550C291,-550 203,-550 203,-550 197,-550 191,-544 191,-538 191,-538 191,-521 191,-521 191,-515 197,-509 203,-509 203,-509 291,-509 291,-509 297,-509 303,-515 303,-521 303,-521 303,-538 303,-538 303,-544 297,-550 291,-550"/>
<text text-anchor="middle" x="247" y="-538" font-family="sans" font-size="10.00" fill="#000000">bcftools_get_samples</text>
<text text-anchor="middle" x="247" y="-527" font-family="sans" font-size="10.00" fill="#000000">PID: 0</text>
<text text-anchor="middle" x="247" y="-516" font-family="sans" font-size="10.00" fill="#000000">SID: 2</text>
</g>
<!-- 11&#45;&gt;0 -->
<g id="edge2" class="edge">
<title>11&#45;&gt;0</title>
<path fill="none" stroke="#c0c0c0" stroke-width="2" d="M241.8668,-508.721C229.0082,-456.6703 195.4093,-320.6637 180.8701,-261.8098"/>
<polygon fill="#c0c0c0" stroke="#c0c0c0" stroke-width="2" points="184.2622,-260.9468 178.466,-252.0781 177.4665,-262.6256 184.2622,-260.9468"/>
</g>
<!-- 12&#45;&gt;11 -->
<g id="edge14" class="edge">
<title>12&#45;&gt;11</title>
<path fill="none" stroke="#c0c0c0" stroke-width="2" d="M250.6794,-737.3875C249.9969,-698.8253 248.3935,-608.2336 247.5465,-560.3747"/>
<polygon fill="#c0c0c0" stroke="#c0c0c0" stroke-width="2" points="251.0445,-560.2268 247.368,-550.2903 244.0456,-560.3507 251.0445,-560.2268"/>
</g>
<!-- 13 -->
<g id="node14" class="node">
<title>13</title>
<path fill="none" stroke="#d87556" stroke-width="2" d="M1049,-36C1049,-36 1007,-36 1007,-36 1001,-36 995,-30 995,-24 995,-24 995,-12 995,-12 995,-6 1001,0 1007,0 1007,0 1049,0 1049,0 1055,0 1061,-6 1061,-12 1061,-12 1061,-24 1061,-24 1061,-30 1055,-36 1049,-36"/>
<text text-anchor="middle" x="1028" y="-15.5" font-family="sans" font-size="10.00" fill="#000000">all_per_sim</text>
</g>
<!-- 14 -->
<g id="node15" class="node">
<title>14</title>
<path fill="none" stroke="#5682d8" stroke-width="2" d="M431.5,-180C431.5,-180 388.5,-180 388.5,-180 382.5,-180 376.5,-174 376.5,-168 376.5,-168 376.5,-156 376.5,-156 376.5,-150 382.5,-144 388.5,-144 388.5,-144 431.5,-144 431.5,-144 437.5,-144 443.5,-150 443.5,-156 443.5,-156 443.5,-168 443.5,-168 443.5,-174 437.5,-180 431.5,-180"/>
<text text-anchor="middle" x="410" y="-159.5" font-family="sans" font-size="10.00" fill="#000000">varscan_vg</text>
</g>
<!-- 14&#45;&gt;13 -->
<g id="edge16" class="edge">
<title>14&#45;&gt;13</title>
<path fill="none" stroke="#c0c0c0" stroke-width="2" d="M443.6981,-152.3203C504.6937,-134.9757 637.6054,-97.9876 751,-72 833.1045,-53.1834 929.8583,-35.2861 984.5568,-25.5595"/>
<polygon fill="#c0c0c0" stroke="#c0c0c0" stroke-width="2" points="985.3566,-28.9724 994.5933,-23.7827 984.1363,-22.0796 985.3566,-28.9724"/>
</g>
<!-- 15 -->
<g id="node16" class="node">
<title>15</title>
<path fill="none" stroke="#d88d56" stroke-width="2" d="M1031,-920C1031,-920 959,-920 959,-920 953,-920 947,-914 947,-908 947,-908 947,-896 947,-896 947,-890 953,-884 959,-884 959,-884 1031,-884 1031,-884 1037,-884 1043,-890 1043,-896 1043,-896 1043,-908 1043,-908 1043,-914 1037,-920 1031,-920"/>
<text text-anchor="middle" x="995" y="-905" font-family="sans" font-size="10.00" fill="#000000">ancestral_genome</text>
<text text-anchor="middle" x="995" y="-894" font-family="sans" font-size="10.00" fill="#000000">ID: 1</text>
</g>
<!-- 15&#45;&gt;14 -->
<g id="edge22" class="edge">
<title>15&#45;&gt;14</title>
<path fill="none" stroke="#c0c0c0" stroke-width="2" d="M946.9129,-899.6693C815.5104,-893.006 457.0502,-872.7537 410,-848 362.6609,-823.0943 333,-808.991 333,-755.5 333,-755.5 333,-755.5 333,-306 333,-260.5253 363.2311,-215.5023 385.8084,-188.2188"/>
<polygon fill="#c0c0c0" stroke="#c0c0c0" stroke-width="2" points="388.7016,-190.2201 392.5275,-180.3402 383.3754,-185.6778 388.7016,-190.2201"/>
</g>
<!-- 16 -->
<g id="node17" class="node">
<title>16</title>
<path fill="none" stroke="#d89556" stroke-width="2" d="M1013,-696.5C1013,-696.5 909,-696.5 909,-696.5 903,-696.5 897,-690.5 897,-684.5 897,-684.5 897,-672.5 897,-672.5 897,-666.5 903,-660.5 909,-660.5 909,-660.5 1013,-660.5 1013,-660.5 1019,-660.5 1025,-666.5 1025,-672.5 1025,-672.5 1025,-684.5 1025,-684.5 1025,-690.5 1019,-696.5 1013,-696.5"/>
<text text-anchor="middle" x="961" y="-681.5" font-family="sans" font-size="10.00" fill="#000000">ancestral_samtools_faidx</text>
<text text-anchor="middle" x="961" y="-670.5" font-family="sans" font-size="10.00" fill="#000000">SID: 1</text>
</g>
<!-- 15&#45;&gt;16 -->
<g id="edge25" class="edge">
<title>15&#45;&gt;16</title>
<path fill="none" stroke="#c0c0c0" stroke-width="2" d="M992.2176,-883.7101C986.288,-844.7317 972.3721,-753.2547 965.2953,-706.7356"/>
<polygon fill="#c0c0c0" stroke="#c0c0c0" stroke-width="2" points="968.7373,-706.0891 963.7731,-696.7292 961.817,-707.1419 968.7373,-706.0891"/>
</g>
<!-- 21 -->
<g id="node22" class="node">
<title>21</title>
<path fill="none" stroke="#567bd8" stroke-width="2" d="M768,-622C768,-622 718,-622 718,-622 712,-622 706,-616 706,-610 706,-610 706,-598 706,-598 706,-592 712,-586 718,-586 718,-586 768,-586 768,-586 774,-586 780,-592 780,-598 780,-598 780,-610 780,-610 780,-616 774,-622 768,-622"/>
<text text-anchor="middle" x="743" y="-601.5" font-family="sans" font-size="10.00" fill="#000000">vg_autoindex</text>
</g>
<!-- 15&#45;&gt;21 -->
<g id="edge33" class="edge">
<title>15&#45;&gt;21</title>
<path fill="none" stroke="#c0c0c0" stroke-width="2" d="M958.9463,-883.8776C920.4706,-862.8325 860.1807,-824.6907 824,-776 789.8669,-730.0649 764.8136,-667.4532 752.1982,-631.8256"/>
<polygon fill="#c0c0c0" stroke="#c0c0c0" stroke-width="2" points="755.4112,-630.408 748.8291,-622.1058 748.7972,-632.7006 755.4112,-630.408"/>
</g>
<!-- 24 -->
<g id="node25" class="node">
<title>24</title>
<path fill="none" stroke="#56a9d8" stroke-width="2" d="M955,-848C955,-848 925,-848 925,-848 919,-848 913,-842 913,-836 913,-836 913,-824 913,-824 913,-818 919,-812 925,-812 925,-812 955,-812 955,-812 961,-812 967,-818 967,-824 967,-824 967,-836 967,-836 967,-842 961,-848 955,-848"/>
<text text-anchor="middle" x="940" y="-827.5" font-family="sans" font-size="10.00" fill="#000000">slim</text>
</g>
<!-- 15&#45;&gt;24 -->
<g id="edge37" class="edge">
<title>15&#45;&gt;24</title>
<path fill="none" stroke="#c0c0c0" stroke-width="2" d="M981.1212,-883.8314C974.7864,-875.5386 967.1616,-865.557 960.2074,-856.4533"/>
<polygon fill="#c0c0c0" stroke="#c0c0c0" stroke-width="2" points="962.9175,-854.2353 954.0657,-848.4133 957.3548,-858.4847 962.9175,-854.2353"/>
</g>
<!-- 36 -->
<g id="node37" class="node">
<title>36</title>
<path fill="none" stroke="#61d856" stroke-width="2" d="M600,-180C600,-180 558,-180 558,-180 552,-180 546,-174 546,-168 546,-168 546,-156 546,-156 546,-150 552,-144 558,-144 558,-144 600,-144 600,-144 606,-144 612,-150 612,-156 612,-156 612,-168 612,-168 612,-174 606,-180 600,-180"/>
<text text-anchor="middle" x="579" y="-159.5" font-family="sans" font-size="10.00" fill="#000000">poolsnp_vg</text>
</g>
<!-- 15&#45;&gt;36 -->
<g id="edge54" class="edge">
<title>15&#45;&gt;36</title>
<path fill="none" stroke="#c0c0c0" stroke-width="2" d="M946.8137,-900.9814C800.4488,-896.5969 371,-873.6643 371,-755.5 371,-755.5 371,-755.5 371,-380.5 371,-296.7317 401.6091,-272.9938 463,-216 483.7474,-196.7386 512.5853,-183.2722 536.317,-174.6044"/>
<polygon fill="#c0c0c0" stroke="#c0c0c0" stroke-width="2" points="537.5139,-177.8937 545.8007,-171.2923 535.2059,-171.2851 537.5139,-177.8937"/>
</g>
<!-- 38 -->
<g id="node39" class="node">
<title>38</title>
<path fill="none" stroke="#9fd856" stroke-width="2" d="M1096.5,-180C1096.5,-180 1045.5,-180 1045.5,-180 1039.5,-180 1033.5,-174 1033.5,-168 1033.5,-168 1033.5,-156 1033.5,-156 1033.5,-150 1039.5,-144 1045.5,-144 1045.5,-144 1096.5,-144 1096.5,-144 1102.5,-144 1108.5,-150 1108.5,-156 1108.5,-156 1108.5,-168 1108.5,-168 1108.5,-174 1102.5,-180 1096.5,-180"/>
<text text-anchor="middle" x="1071" y="-159.5" font-family="sans" font-size="10.00" fill="#000000">freebayes_vg</text>
</g>
<!-- 15&#45;&gt;38 -->
<g id="edge58" class="edge">
<title>15&#45;&gt;38</title>
<path fill="none" stroke="#c0c0c0" stroke-width="2" d="M1023.4465,-883.962C1057.1006,-861.6154 1113.4189,-820.953 1152,-776 1224.8815,-691.0815 1246.4682,-660.6777 1263,-550 1275.5191,-466.1865 1280.7497,-437.7328 1247,-360 1214.8884,-286.0402 1144.2189,-220.5216 1102.8609,-186.568"/>
<polygon fill="#c0c0c0" stroke="#c0c0c0" stroke-width="2" points="1104.975,-183.7763 1095.0003,-180.2049 1100.5708,-189.2172 1104.975,-183.7763"/>
</g>
<!-- 41 -->
<g id="node42" class="node">
<title>41</title>
<path fill="none" stroke="#88d856" stroke-width="2" d="M1235,-473C1235,-473 1173,-473 1173,-473 1167,-473 1161,-467 1161,-461 1161,-461 1161,-449 1161,-449 1161,-443 1167,-437 1173,-437 1173,-437 1235,-437 1235,-437 1241,-437 1247,-443 1247,-449 1247,-449 1247,-461 1247,-461 1247,-467 1241,-473 1235,-473"/>
<text text-anchor="middle" x="1204" y="-452.5" font-family="sans" font-size="10.00" fill="#000000">freqk_ref_dedup</text>
</g>
<!-- 15&#45;&gt;41 -->
<g id="edge67" class="edge">
<title>15&#45;&gt;41</title>
<path fill="none" stroke="#c0c0c0" stroke-width="2" d="M1043.1697,-889.4697C1128.8895,-865.745 1299,-811.5966 1299,-755.5 1299,-755.5 1299,-755.5 1299,-678.5 1299,-601.4863 1301.2297,-575.8551 1263,-509 1256.7534,-498.076 1247.5356,-488.1191 1238.2331,-479.8135"/>
<polygon fill="#c0c0c0" stroke="#c0c0c0" stroke-width="2" points="1240.3576,-477.0264 1230.4624,-473.2403 1235.8368,-482.3708 1240.3576,-477.0264"/>
</g>
<!-- 43 -->
<g id="node44" class="node">
<title>43</title>
<path fill="none" stroke="#8fd856" stroke-width="2" d="M1220.5,-622C1220.5,-622 1177.5,-622 1177.5,-622 1171.5,-622 1165.5,-616 1165.5,-610 1165.5,-610 1165.5,-598 1165.5,-598 1165.5,-592 1171.5,-586 1177.5,-586 1177.5,-586 1220.5,-586 1220.5,-586 1226.5,-586 1232.5,-592 1232.5,-598 1232.5,-598 1232.5,-610 1232.5,-610 1232.5,-616 1226.5,-622 1220.5,-622"/>
<text text-anchor="middle" x="1199" y="-601.5" font-family="sans" font-size="10.00" fill="#000000">freqk_index</text>
</g>
<!-- 15&#45;&gt;43 -->
<g id="edge71" class="edge">
<title>15&#45;&gt;43</title>
<path fill="none" stroke="#c0c0c0" stroke-width="2" d="M1028.4198,-883.833C1064.2901,-862.6216 1120.3673,-824.2161 1152,-776 1181.3926,-731.1984 1192.525,-668.3476 1196.6528,-632.3376"/>
<polygon fill="#c0c0c0" stroke="#c0c0c0" stroke-width="2" points="1200.1669,-632.3823 1197.7214,-622.0735 1193.2046,-631.6573 1200.1669,-632.3823"/>
</g>
<!-- 44 -->
<g id="node45" class="node">
<title>44</title>
<path fill="none" stroke="#afd856" stroke-width="2" d="M1392.5,-324C1392.5,-324 1325.5,-324 1325.5,-324 1319.5,-324 1313.5,-318 1313.5,-312 1313.5,-312 1313.5,-300 1313.5,-300 1313.5,-294 1319.5,-288 1325.5,-288 1325.5,-288 1392.5,-288 1392.5,-288 1398.5,-288 1404.5,-294 1404.5,-300 1404.5,-300 1404.5,-312 1404.5,-312 1404.5,-318 1398.5,-324 1392.5,-324"/>
<text text-anchor="middle" x="1359" y="-303.5" font-family="sans" font-size="10.00" fill="#000000">exact_kmc_histo</text>
</g>
<!-- 15&#45;&gt;44 -->
<g id="edge73" class="edge">
<title>15&#45;&gt;44</title>
<path fill="none" stroke="#c0c0c0" stroke-width="2" d="M1043.1408,-896.1499C1091.0815,-889.096 1165.9829,-874.7061 1226,-848 1291.783,-818.7282 1359,-827.5017 1359,-755.5 1359,-755.5 1359,-755.5 1359,-455 1359,-413.0695 1359,-364.5016 1359,-334.5122"/>
<polygon fill="#c0c0c0" stroke="#c0c0c0" stroke-width="2" points="1362.5001,-334.3508 1359,-324.3508 1355.5001,-334.3508 1362.5001,-334.3508"/>
</g>
<!-- 16&#45;&gt;14 -->
<g id="edge23" class="edge">
<title>16&#45;&gt;14</title>
<path fill="none" stroke="#c0c0c0" stroke-width="2" d="M899.8598,-660.415C895.8649,-659.5173 891.8866,-658.6999 888,-658 792.5384,-640.8093 532.7978,-677.1431 453,-622 415.5472,-596.1188 409,-575.0252 409,-529.5 409,-529.5 409,-529.5 409,-380.5 409,-312.2477 409.494,-232.0042 409.7875,-190.3384"/>
<polygon fill="#c0c0c0" stroke="#c0c0c0" stroke-width="2" points="413.2889,-190.1537 409.861,-180.1287 406.289,-190.1033 413.2889,-190.1537"/>
</g>
<!-- 16&#45;&gt;36 -->
<g id="edge55" class="edge">
<title>16&#45;&gt;36</title>
<path fill="none" stroke="#c0c0c0" stroke-width="2" d="M898.1758,-660.4812C894.741,-659.6137 891.3324,-658.7804 888,-658 689.2265,-611.4515 447,-733.6511 447,-529.5 447,-529.5 447,-529.5 447,-306 447,-251.9969 498.0702,-209.4617 536.6783,-185.0217"/>
<polygon fill="#c0c0c0" stroke="#c0c0c0" stroke-width="2" points="538.995,-187.7068 545.6908,-179.496 535.3362,-181.7392 538.995,-187.7068"/>
</g>
<!-- 16&#45;&gt;38 -->
<g id="edge59" class="edge">
<title>16&#45;&gt;38</title>
<path fill="none" stroke="#c0c0c0" stroke-width="2" d="M958.1669,-660.2012C954.076,-632.1473 947,-576.7872 947,-529.5 947,-529.5 947,-529.5 947,-380.5 947,-302.1131 1008.111,-226.1009 1044.5308,-187.7607"/>
<polygon fill="#c0c0c0" stroke="#c0c0c0" stroke-width="2" points="1047.4484,-189.7796 1051.8967,-180.1638 1042.4228,-184.9068 1047.4484,-189.7796"/>
</g>
<!-- 16&#45;&gt;41 -->
<g id="edge68" class="edge">
<title>16&#45;&gt;41</title>
<path fill="none" stroke="#c0c0c0" stroke-width="2" d="M978.8318,-660.0775C1009.8702,-628.2766 1076.2331,-561.4502 1136,-509 1147.3971,-498.9981 1160.336,-488.5194 1171.8456,-479.4826"/>
<polygon fill="#c0c0c0" stroke="#c0c0c0" stroke-width="2" points="1174.1927,-482.091 1179.9313,-473.1848 1169.8913,-476.5685 1174.1927,-482.091"/>
</g>
<!-- 16&#45;&gt;43 -->
<g id="edge72" class="edge">
<title>16&#45;&gt;43</title>
<path fill="none" stroke="#c0c0c0" stroke-width="2" d="M1018.6132,-660.4656C1060.7929,-647.2623 1117.142,-629.6236 1155.5648,-617.5963"/>
<polygon fill="#c0c0c0" stroke="#c0c0c0" stroke-width="2" points="1156.9153,-620.8411 1165.4131,-614.5136 1154.8241,-614.1608 1156.9153,-620.8411"/>
</g>
<!-- 17 -->
<g id="node18" class="node">
<title>17</title>
<path fill="none" stroke="#56d8d8" stroke-width="2" d="M633.5,-252C633.5,-252 558.5,-252 558.5,-252 552.5,-252 546.5,-246 546.5,-240 546.5,-240 546.5,-228 546.5,-228 546.5,-222 552.5,-216 558.5,-216 558.5,-216 633.5,-216 633.5,-216 639.5,-216 645.5,-222 645.5,-228 645.5,-228 645.5,-240 645.5,-240 645.5,-246 639.5,-252 633.5,-252"/>
<text text-anchor="middle" x="596" y="-231.5" font-family="sans" font-size="10.00" fill="#000000">samtools_markdup</text>
</g>
<!-- 17&#45;&gt;14 -->
<g id="edge24" class="edge">
<title>17&#45;&gt;14</title>
<path fill="none" stroke="#c0c0c0" stroke-width="2" d="M549.0643,-215.8314C519.5742,-204.4158 481.8167,-189.8 453.0884,-178.6794"/>
<polygon fill="#c0c0c0" stroke="#c0c0c0" stroke-width="2" points="454.3061,-175.3977 443.7169,-175.0517 451.7791,-181.9257 454.3061,-175.3977"/>
</g>
<!-- 17&#45;&gt;36 -->
<g id="edge56" class="edge">
<title>17&#45;&gt;36</title>
<path fill="none" stroke="#c0c0c0" stroke-width="2" d="M591.7102,-215.8314C589.892,-208.131 587.7301,-198.9743 585.7095,-190.4166"/>
<polygon fill="#c0c0c0" stroke="#c0c0c0" stroke-width="2" points="589.0519,-189.3414 583.3476,-180.4133 582.2392,-190.95 589.0519,-189.3414"/>
</g>
<!-- 17&#45;&gt;38 -->
<g id="edge60" class="edge">
<title>17&#45;&gt;38</title>
<path fill="none" stroke="#c0c0c0" stroke-width="2" d="M645.9355,-226.4308C737.9061,-212.49 932.9045,-182.9324 1023.2301,-169.2409"/>
<polygon fill="#c0c0c0" stroke="#c0c0c0" stroke-width="2" points="1023.8327,-172.6896 1033.1952,-167.7304 1022.7835,-165.7687 1023.8327,-172.6896"/>
</g>
<!-- 18 -->
<g id="node19" class="node">
<title>18</title>
<path fill="none" stroke="#56d0d8" stroke-width="2" d="M633.5,-324C633.5,-324 568.5,-324 568.5,-324 562.5,-324 556.5,-318 556.5,-312 556.5,-312 556.5,-300 556.5,-300 556.5,-294 562.5,-288 568.5,-288 568.5,-288 633.5,-288 633.5,-288 639.5,-288 645.5,-294 645.5,-300 645.5,-300 645.5,-312 645.5,-312 645.5,-318 639.5,-324 633.5,-324"/>
<text text-anchor="middle" x="601" y="-303.5" font-family="sans" font-size="10.00" fill="#000000">samtools_merge</text>
</g>
<!-- 18&#45;&gt;17 -->
<g id="edge26" class="edge">
<title>18&#45;&gt;17</title>
<path fill="none" stroke="#c0c0c0" stroke-width="2" d="M599.7383,-287.8314C599.2035,-280.131 598.5677,-270.9743 597.9734,-262.4166"/>
<polygon fill="#c0c0c0" stroke="#c0c0c0" stroke-width="2" points="601.4632,-262.1467 597.2787,-252.4133 594.48,-262.6317 601.4632,-262.1467"/>
</g>
<!-- 19 -->
<g id="node20" class="node">
<title>19</title>
<path fill="none" stroke="#56c9d8" stroke-width="2" d="M711,-398.5C711,-398.5 625,-398.5 625,-398.5 619,-398.5 613,-392.5 613,-386.5 613,-386.5 613,-374.5 613,-374.5 613,-368.5 619,-362.5 625,-362.5 625,-362.5 711,-362.5 711,-362.5 717,-362.5 723,-368.5 723,-374.5 723,-374.5 723,-386.5 723,-386.5 723,-392.5 717,-398.5 711,-398.5"/>
<text text-anchor="middle" x="668" y="-378" font-family="sans" font-size="10.00" fill="#000000">samtools_sort_paired</text>
</g>
<!-- 19&#45;&gt;18 -->
<g id="edge27" class="edge">
<title>19&#45;&gt;18</title>
<path fill="none" stroke="#c0c0c0" stroke-width="2" d="M651.7812,-362.4656C643.4486,-353.2003 633.1516,-341.7507 624.0128,-331.5888"/>
<polygon fill="#c0c0c0" stroke="#c0c0c0" stroke-width="2" points="626.591,-329.2215 617.3017,-324.1265 621.3862,-333.9024 626.591,-329.2215"/>
</g>
<!-- 20 -->
<g id="node21" class="node">
<title>20</title>
<path fill="none" stroke="#5663d8" stroke-width="2" d="M702.5,-473C702.5,-473 633.5,-473 633.5,-473 627.5,-473 621.5,-467 621.5,-461 621.5,-461 621.5,-449 621.5,-449 621.5,-443 627.5,-437 633.5,-437 633.5,-437 702.5,-437 702.5,-437 708.5,-437 714.5,-443 714.5,-449 714.5,-449 714.5,-461 714.5,-461 714.5,-467 708.5,-473 702.5,-473"/>
<text text-anchor="middle" x="668" y="-452.5" font-family="sans" font-size="10.00" fill="#000000">vg_surject_paired</text>
</g>
<!-- 20&#45;&gt;19 -->
<g id="edge30" class="edge">
<title>20&#45;&gt;19</title>
<path fill="none" stroke="#c0c0c0" stroke-width="2" d="M668,-436.9656C668,-428.5178 668,-418.2542 668,-408.8064"/>
<polygon fill="#c0c0c0" stroke="#c0c0c0" stroke-width="2" points="671.5001,-408.6265 668,-398.6265 664.5001,-408.6265 671.5001,-408.6265"/>
</g>
<!-- 21&#45;&gt;20 -->
<g id="edge31" class="edge">
<title>21&#45;&gt;20</title>
<path fill="none" stroke="#c0c0c0" stroke-width="2" d="M705.9672,-589.171C689.3551,-580.4301 671.4104,-567.5834 662,-550 650.977,-529.4033 653.9569,-502.5867 658.8363,-482.6993"/>
<polygon fill="#c0c0c0" stroke="#c0c0c0" stroke-width="2" points="662.2266,-483.5705 661.497,-473.0008 655.476,-481.7185 662.2266,-483.5705"/>
</g>
<!-- 25 -->
<g id="node26" class="node">
<title>25</title>
<path fill="none" stroke="#5673d8" stroke-width="2" d="M749,-547.5C749,-547.5 683,-547.5 683,-547.5 677,-547.5 671,-541.5 671,-535.5 671,-535.5 671,-523.5 671,-523.5 671,-517.5 677,-511.5 683,-511.5 683,-511.5 749,-511.5 749,-511.5 755,-511.5 761,-517.5 761,-523.5 761,-523.5 761,-535.5 761,-535.5 761,-541.5 755,-547.5 749,-547.5"/>
<text text-anchor="middle" x="716" y="-527" font-family="sans" font-size="10.00" fill="#000000">vg_giraffe_paired</text>
</g>
<!-- 21&#45;&gt;25 -->
<g id="edge38" class="edge">
<title>21&#45;&gt;25</title>
<path fill="none" stroke="#c0c0c0" stroke-width="2" d="M736.4641,-585.9656C733.3366,-577.3361 729.5224,-566.8119 726.0382,-557.1981"/>
<polygon fill="#c0c0c0" stroke="#c0c0c0" stroke-width="2" points="729.2673,-555.8356 722.5693,-547.6265 722.6861,-558.2207 729.2673,-555.8356"/>
</g>
<!-- 30 -->
<g id="node31" class="node">
<title>30</title>
<path fill="none" stroke="#565bd8" stroke-width="2" d="M575,-473C575,-473 495,-473 495,-473 489,-473 483,-467 483,-461 483,-461 483,-449 483,-449 483,-443 489,-437 495,-437 495,-437 575,-437 575,-437 581,-437 587,-443 587,-449 587,-449 587,-461 587,-461 587,-467 581,-473 575,-473"/>
<text text-anchor="middle" x="535" y="-452.5" font-family="sans" font-size="10.00" fill="#000000">vg_surject_unpaired</text>
</g>
<!-- 21&#45;&gt;30 -->
<g id="edge44" class="edge">
<title>21&#45;&gt;30</title>
<path fill="none" stroke="#c0c0c0" stroke-width="2" d="M705.6837,-601.1172C644.9131,-595.5619 528.8327,-581.0694 504,-550 488.1721,-530.197 500.5136,-502.0488 514.0232,-481.5345"/>
<polygon fill="#c0c0c0" stroke="#c0c0c0" stroke-width="2" points="516.9483,-483.4588 519.8058,-473.2565 511.2098,-479.4501 516.9483,-483.4588"/>
</g>
<!-- 31 -->
<g id="node32" class="node">
<title>31</title>
<path fill="none" stroke="#566bd8" stroke-width="2" d="M602.5,-547.5C602.5,-547.5 525.5,-547.5 525.5,-547.5 519.5,-547.5 513.5,-541.5 513.5,-535.5 513.5,-535.5 513.5,-523.5 513.5,-523.5 513.5,-517.5 519.5,-511.5 525.5,-511.5 525.5,-511.5 602.5,-511.5 602.5,-511.5 608.5,-511.5 614.5,-517.5 614.5,-523.5 614.5,-523.5 614.5,-535.5 614.5,-535.5 614.5,-541.5 608.5,-547.5 602.5,-547.5"/>
<text text-anchor="middle" x="564" y="-532.5" font-family="sans" font-size="10.00" fill="#000000">vg_giraffe_unpaired</text>
<text text-anchor="middle" x="564" y="-521.5" font-family="sans" font-size="10.00" fill="#000000">read: R1</text>
</g>
<!-- 21&#45;&gt;31 -->
<g id="edge46" class="edge">
<title>21&#45;&gt;31</title>
<path fill="none" stroke="#c0c0c0" stroke-width="2" d="M705.9111,-588.5636C680.1504,-577.8419 645.4454,-563.3977 616.8041,-551.4771"/>
<polygon fill="#c0c0c0" stroke="#c0c0c0" stroke-width="2" points="617.9224,-548.1516 607.3452,-547.5403 615.2326,-554.6142 617.9224,-548.1516"/>
</g>
<!-- 33 -->
<g id="node34" class="node">
<title>33</title>
<path fill="none" stroke="#565bd8" stroke-width="2" d="M841,-473C841,-473 761,-473 761,-473 755,-473 749,-467 749,-461 749,-461 749,-449 749,-449 749,-443 755,-437 761,-437 761,-437 841,-437 841,-437 847,-437 853,-443 853,-449 853,-449 853,-461 853,-461 853,-467 847,-473 841,-473"/>
<text text-anchor="middle" x="801" y="-452.5" font-family="sans" font-size="10.00" fill="#000000">vg_surject_unpaired</text>
</g>
<!-- 21&#45;&gt;33 -->
<g id="edge49" class="edge">
<title>21&#45;&gt;33</title>
<path fill="none" stroke="#c0c0c0" stroke-width="2" d="M752.9364,-585.8189C758.3655,-575.4897 764.9846,-562.2174 770,-550 779.1031,-527.825 787.4101,-501.9134 793.1287,-482.7581"/>
<polygon fill="#c0c0c0" stroke="#c0c0c0" stroke-width="2" points="796.492,-483.7267 795.9508,-473.1457 789.7755,-481.7548 796.492,-483.7267"/>
</g>
<!-- 34 -->
<g id="node35" class="node">
<title>34</title>
<path fill="none" stroke="#566bd8" stroke-width="2" d="M906.5,-547.5C906.5,-547.5 829.5,-547.5 829.5,-547.5 823.5,-547.5 817.5,-541.5 817.5,-535.5 817.5,-535.5 817.5,-523.5 817.5,-523.5 817.5,-517.5 823.5,-511.5 829.5,-511.5 829.5,-511.5 906.5,-511.5 906.5,-511.5 912.5,-511.5 918.5,-517.5 918.5,-523.5 918.5,-523.5 918.5,-535.5 918.5,-535.5 918.5,-541.5 912.5,-547.5 906.5,-547.5"/>
<text text-anchor="middle" x="868" y="-532.5" font-family="sans" font-size="10.00" fill="#000000">vg_giraffe_unpaired</text>
<text text-anchor="middle" x="868" y="-521.5" font-family="sans" font-size="10.00" fill="#000000">read: R2</text>
</g>
<!-- 21&#45;&gt;34 -->
<g id="edge51" class="edge">
<title>21&#45;&gt;34</title>
<path fill="none" stroke="#c0c0c0" stroke-width="2" d="M773.259,-585.9656C789.8718,-576.0644 810.6696,-563.6689 828.5436,-553.016"/>
<polygon fill="#c0c0c0" stroke="#c0c0c0" stroke-width="2" points="830.7882,-555.7527 837.5864,-547.6265 827.2044,-549.7397 830.7882,-555.7527"/>
</g>
<!-- 22 -->
<g id="node23" class="node">
<title>22</title>
<path fill="none" stroke="#d8bc56" stroke-width="2" d="M1143,-699C1143,-699 1055,-699 1055,-699 1049,-699 1043,-693 1043,-687 1043,-687 1043,-670 1043,-670 1043,-664 1049,-658 1055,-658 1055,-658 1143,-658 1143,-658 1149,-658 1155,-664 1155,-670 1155,-670 1155,-687 1155,-687 1155,-693 1149,-699 1143,-699"/>
<text text-anchor="middle" x="1099" y="-687" font-family="sans" font-size="10.00" fill="#000000">bcftools_get_samples</text>
<text text-anchor="middle" x="1099" y="-676" font-family="sans" font-size="10.00" fill="#000000">PID: 0</text>
<text text-anchor="middle" x="1099" y="-665" font-family="sans" font-size="10.00" fill="#000000">SID: 1</text>
</g>
<!-- 22&#45;&gt;13 -->
<g id="edge17" class="edge">
<title>22&#45;&gt;13</title>
<path fill="none" stroke="#c0c0c0" stroke-width="2" d="M1068.7494,-657.8711C1034.9763,-632.1283 985,-584.7077 985,-529.5 985,-529.5 985,-529.5 985,-162 985,-119.9897 1002.0108,-73.8592 1014.6339,-45.4108"/>
<polygon fill="#c0c0c0" stroke="#c0c0c0" stroke-width="2" points="1017.906,-46.6713 1018.8808,-36.1214 1011.5398,-43.7607 1017.906,-46.6713"/>
</g>
<!-- 22&#45;&gt;21 -->
<g id="edge34" class="edge">
<title>22&#45;&gt;21</title>
<path fill="none" stroke="#c0c0c0" stroke-width="2" d="M1042.7665,-660.2279C1039.8122,-659.4364 1036.8771,-658.6876 1034,-658 938.4886,-635.1741 912.1905,-641.77 816,-622 807.5453,-620.2623 798.5878,-618.2214 789.9513,-616.1498"/>
<polygon fill="#c0c0c0" stroke="#c0c0c0" stroke-width="2" points="790.5548,-612.6943 780.0097,-613.7201 788.8929,-619.4942 790.5548,-612.6943"/>
</g>
<!-- 22&#45;&gt;38 -->
<g id="edge61" class="edge">
<title>22&#45;&gt;38</title>
<path fill="none" stroke="#c0c0c0" stroke-width="2" d="M1102.2668,-657.9692C1109.6528,-609.7057 1127,-485.2074 1127,-380.5 1127,-380.5 1127,-380.5 1127,-306 1127,-262.8617 1104.9001,-217.0945 1088.4668,-189.0255"/>
<polygon fill="#c0c0c0" stroke="#c0c0c0" stroke-width="2" points="1091.3137,-186.9688 1083.1512,-180.2143 1085.32,-190.5847 1091.3137,-186.9688"/>
</g>
<!-- 22&#45;&gt;41 -->
<g id="edge66" class="edge">
<title>22&#45;&gt;41</title>
<path fill="none" stroke="#c0c0c0" stroke-width="2" d="M1104.839,-657.7705C1116.0768,-618.5269 1140.9313,-534.9842 1156,-509 1161.8776,-498.8647 1169.8563,-488.9366 1177.6204,-480.4137"/>
<polygon fill="#c0c0c0" stroke="#c0c0c0" stroke-width="2" points="1180.2906,-482.6842 1184.6239,-473.016 1175.2072,-477.8717 1180.2906,-482.6842"/>
</g>
<!-- 22&#45;&gt;43 -->
<g id="edge70" class="edge">
<title>22&#45;&gt;43</title>
<path fill="none" stroke="#c0c0c0" stroke-width="2" d="M1126.5902,-657.9453C1138.9202,-648.7594 1153.5428,-637.8656 1166.4083,-628.2809"/>
<polygon fill="#c0c0c0" stroke="#c0c0c0" stroke-width="2" points="1168.639,-630.9835 1174.5672,-622.2024 1164.457,-625.37 1168.639,-630.9835"/>
</g>
<!-- 23 -->
<g id="node24" class="node">
<title>23</title>
<path fill="none" stroke="#d8cb56" stroke-width="2" d="M1131.5,-773.5C1131.5,-773.5 1050.5,-773.5 1050.5,-773.5 1044.5,-773.5 1038.5,-767.5 1038.5,-761.5 1038.5,-761.5 1038.5,-749.5 1038.5,-749.5 1038.5,-743.5 1044.5,-737.5 1050.5,-737.5 1050.5,-737.5 1131.5,-737.5 1131.5,-737.5 1137.5,-737.5 1143.5,-743.5 1143.5,-749.5 1143.5,-749.5 1143.5,-761.5 1143.5,-761.5 1143.5,-767.5 1137.5,-773.5 1131.5,-773.5"/>
<text text-anchor="middle" x="1091" y="-753" font-family="sans" font-size="10.00" fill="#000000">bcftools_remove_ref</text>
</g>
<!-- 23&#45;&gt;22 -->
<g id="edge35" class="edge">
<title>23&#45;&gt;22</title>
<path fill="none" stroke="#c0c0c0" stroke-width="2" d="M1092.8959,-737.2521C1093.7713,-728.8259 1094.8348,-718.5905 1095.8271,-709.0387"/>
<polygon fill="#c0c0c0" stroke="#c0c0c0" stroke-width="2" points="1099.3116,-709.3685 1096.8639,-699.0603 1092.3491,-708.645 1099.3116,-709.3685"/>
</g>
<!-- 24&#45;&gt;23 -->
<g id="edge36" class="edge">
<title>24&#45;&gt;23</title>
<path fill="none" stroke="#c0c0c0" stroke-width="2" d="M967.345,-816.5086C989.0688,-805.7906 1019.9214,-790.5686 1045.3736,-778.011"/>
<polygon fill="#c0c0c0" stroke="#c0c0c0" stroke-width="2" points="1047.0602,-781.0818 1054.4795,-773.5184 1043.9629,-774.8043 1047.0602,-781.0818"/>
</g>
<!-- 28 -->
<g id="node29" class="node">
<title>28</title>
<path fill="none" stroke="#56b9d8" stroke-width="2" d="M925,-776C925,-776 845,-776 845,-776 839,-776 833,-770 833,-764 833,-764 833,-747 833,-747 833,-741 839,-735 845,-735 845,-735 925,-735 925,-735 931,-735 937,-741 937,-747 937,-747 937,-764 937,-764 937,-770 931,-776 925,-776"/>
<text text-anchor="middle" x="885" y="-764" font-family="sans" font-size="10.00" fill="#000000">seqkit_get_samples</text>
<text text-anchor="middle" x="885" y="-753" font-family="sans" font-size="10.00" fill="#000000">PID: 0</text>
<text text-anchor="middle" x="885" y="-742" font-family="sans" font-size="10.00" fill="#000000">SID: 1</text>
</g>
<!-- 24&#45;&gt;28 -->
<g id="edge42" class="edge">
<title>24&#45;&gt;28</title>
<path fill="none" stroke="#c0c0c0" stroke-width="2" d="M926.686,-811.9656C920.6009,-803.723 913.2396,-793.7518 906.4067,-784.4964"/>
<polygon fill="#c0c0c0" stroke="#c0c0c0" stroke-width="2" points="909.0872,-782.2342 900.332,-776.2679 903.4556,-786.3918 909.0872,-782.2342"/>
</g>
<!-- 25&#45;&gt;20 -->
<g id="edge32" class="edge">
<title>25&#45;&gt;20</title>
<path fill="none" stroke="#c0c0c0" stroke-width="2" d="M704.3805,-511.4656C698.645,-502.5636 691.6104,-491.6453 685.2607,-481.7901"/>
<polygon fill="#c0c0c0" stroke="#c0c0c0" stroke-width="2" points="688.0372,-479.6371 679.6788,-473.1265 682.1528,-483.4285 688.0372,-479.6371"/>
</g>
<!-- 26 -->
<g id="node27" class="node">
<title>26</title>
<path fill="none" stroke="#a7d856" stroke-width="2" d="M867,-622C867,-622 837,-622 837,-622 831,-622 825,-616 825,-610 825,-610 825,-598 825,-598 825,-592 831,-586 837,-586 837,-586 867,-586 867,-586 873,-586 879,-592 879,-598 879,-598 879,-610 879,-610 879,-616 873,-622 867,-622"/>
<text text-anchor="middle" x="852" y="-601.5" font-family="sans" font-size="10.00" fill="#000000">fastp</text>
</g>
<!-- 26&#45;&gt;25 -->
<g id="edge39" class="edge">
<title>26&#45;&gt;25</title>
<path fill="none" stroke="#c0c0c0" stroke-width="2" d="M824.8052,-589.1029C805.6781,-578.6252 779.7159,-564.4032 757.9492,-552.4795"/>
<polygon fill="#c0c0c0" stroke="#c0c0c0" stroke-width="2" points="759.3615,-549.2625 748.9096,-547.5277 755.9984,-555.4017 759.3615,-549.2625"/>
</g>
<!-- 26&#45;&gt;31 -->
<g id="edge47" class="edge">
<title>26&#45;&gt;31</title>
<path fill="none" stroke="#c0c0c0" stroke-width="2" d="M824.7646,-596.0108C813.6902,-592.8166 800.7556,-589.1545 789,-586 733.4882,-571.1041 669.9477,-555.2582 624.58,-544.1505"/>
<polygon fill="#c0c0c0" stroke="#c0c0c0" stroke-width="2" points="625.1547,-540.688 614.6097,-541.714 623.493,-547.4879 625.1547,-540.688"/>
</g>
<!-- 26&#45;&gt;34 -->
<g id="edge52" class="edge">
<title>26&#45;&gt;34</title>
<path fill="none" stroke="#c0c0c0" stroke-width="2" d="M855.8732,-585.9656C857.707,-577.427 859.9392,-567.0333 861.9862,-557.502"/>
<polygon fill="#c0c0c0" stroke="#c0c0c0" stroke-width="2" points="865.4292,-558.1385 864.1071,-547.6265 858.5852,-556.6686 865.4292,-558.1385"/>
</g>
<!-- 40 -->
<g id="node41" class="node">
<title>40</title>
<path fill="none" stroke="#ced856" stroke-width="2" d="M1087,-473C1087,-473 1025,-473 1025,-473 1019,-473 1013,-467 1013,-461 1013,-461 1013,-449 1013,-449 1013,-443 1019,-437 1025,-437 1025,-437 1087,-437 1087,-437 1093,-437 1099,-443 1099,-449 1099,-449 1099,-461 1099,-461 1099,-467 1093,-473 1087,-473"/>
<text text-anchor="middle" x="1056" y="-452.5" font-family="sans" font-size="10.00" fill="#000000">combine_fastqs</text>
</g>
<!-- 26&#45;&gt;40 -->
<g id="edge64" class="edge">
<title>26&#45;&gt;40</title>
<path fill="none" stroke="#c0c0c0" stroke-width="2" d="M877.3914,-585.8209C891.9408,-575.3785 910.5277,-561.9949 927,-550 959.7249,-526.1702 996.9368,-498.7291 1022.9556,-479.4858"/>
<polygon fill="#c0c0c0" stroke="#c0c0c0" stroke-width="2" points="1025.3708,-482.0527 1031.3277,-473.2911 1021.2071,-476.4256 1025.3708,-482.0527"/>
</g>
<!-- 27 -->
<g id="node28" class="node">
<title>27</title>
<path fill="none" stroke="#78d856" stroke-width="2" d="M867,-696.5C867,-696.5 837,-696.5 837,-696.5 831,-696.5 825,-690.5 825,-684.5 825,-684.5 825,-672.5 825,-672.5 825,-666.5 831,-660.5 837,-660.5 837,-660.5 867,-660.5 867,-660.5 873,-660.5 879,-666.5 879,-672.5 879,-672.5 879,-684.5 879,-684.5 879,-690.5 873,-696.5 867,-696.5"/>
<text text-anchor="middle" x="852" y="-676" font-family="sans" font-size="10.00" fill="#000000">iss</text>
</g>
<!-- 27&#45;&gt;26 -->
<g id="edge40" class="edge">
<title>27&#45;&gt;26</title>
<path fill="none" stroke="#c0c0c0" stroke-width="2" d="M852,-660.4656C852,-652.0178 852,-641.7542 852,-632.3064"/>
<polygon fill="#c0c0c0" stroke="#c0c0c0" stroke-width="2" points="855.5001,-632.1265 852,-622.1265 848.5001,-632.1265 855.5001,-632.1265"/>
</g>
<!-- 28&#45;&gt;27 -->
<g id="edge41" class="edge">
<title>28&#45;&gt;27</title>
<path fill="none" stroke="#c0c0c0" stroke-width="2" d="M876.1566,-734.8654C872.3591,-726.0046 867.8664,-715.5216 863.7918,-706.0141"/>
<polygon fill="#c0c0c0" stroke="#c0c0c0" stroke-width="2" points="866.8998,-704.381 859.7435,-696.5683 860.4658,-707.1385 866.8998,-704.381"/>
</g>
<!-- 29 -->
<g id="node30" class="node">
<title>29</title>
<path fill="none" stroke="#56c1d8" stroke-width="2" d="M583,-398.5C583,-398.5 487,-398.5 487,-398.5 481,-398.5 475,-392.5 475,-386.5 475,-386.5 475,-374.5 475,-374.5 475,-368.5 481,-362.5 487,-362.5 487,-362.5 583,-362.5 583,-362.5 589,-362.5 595,-368.5 595,-374.5 595,-374.5 595,-386.5 595,-386.5 595,-392.5 589,-398.5 583,-398.5"/>
<text text-anchor="middle" x="535" y="-378" font-family="sans" font-size="10.00" fill="#000000">samtools_sort_unpaired</text>
</g>
<!-- 29&#45;&gt;18 -->
<g id="edge28" class="edge">
<title>29&#45;&gt;18</title>
<path fill="none" stroke="#c0c0c0" stroke-width="2" d="M550.9768,-362.4656C559.1045,-353.2911 569.1295,-341.975 578.0656,-331.8881"/>
<polygon fill="#c0c0c0" stroke="#c0c0c0" stroke-width="2" points="580.9302,-333.9326 584.9416,-324.1265 575.6906,-329.2908 580.9302,-333.9326"/>
</g>
<!-- 30&#45;&gt;29 -->
<g id="edge43" class="edge">
<title>30&#45;&gt;29</title>
<path fill="none" stroke="#c0c0c0" stroke-width="2" d="M535,-436.9656C535,-428.5178 535,-418.2542 535,-408.8064"/>
<polygon fill="#c0c0c0" stroke="#c0c0c0" stroke-width="2" points="538.5001,-408.6265 535,-398.6265 531.5001,-408.6265 538.5001,-408.6265"/>
</g>
<!-- 31&#45;&gt;30 -->
<g id="edge45" class="edge">
<title>31&#45;&gt;30</title>
<path fill="none" stroke="#c0c0c0" stroke-width="2" d="M556.9799,-511.4656C553.6208,-502.8361 549.5241,-492.3119 545.7818,-482.6981"/>
<polygon fill="#c0c0c0" stroke="#c0c0c0" stroke-width="2" points="548.9451,-481.1757 542.056,-473.1265 542.4219,-483.715 548.9451,-481.1757"/>
</g>
<!-- 32 -->
<g id="node33" class="node">
<title>32</title>
<path fill="none" stroke="#56c1d8" stroke-width="2" d="M849,-398.5C849,-398.5 753,-398.5 753,-398.5 747,-398.5 741,-392.5 741,-386.5 741,-386.5 741,-374.5 741,-374.5 741,-368.5 747,-362.5 753,-362.5 753,-362.5 849,-362.5 849,-362.5 855,-362.5 861,-368.5 861,-374.5 861,-374.5 861,-386.5 861,-386.5 861,-392.5 855,-398.5 849,-398.5"/>
<text text-anchor="middle" x="801" y="-378" font-family="sans" font-size="10.00" fill="#000000">samtools_sort_unpaired</text>
</g>
<!-- 32&#45;&gt;18 -->
<g id="edge29" class="edge">
<title>32&#45;&gt;18</title>
<path fill="none" stroke="#c0c0c0" stroke-width="2" d="M752.5856,-362.4656C723.1682,-351.5077 685.5493,-337.4946 655.1472,-326.1698"/>
<polygon fill="#c0c0c0" stroke="#c0c0c0" stroke-width="2" points="656.1422,-322.8056 645.5495,-322.5947 653.6987,-329.3653 656.1422,-322.8056"/>
</g>
<!-- 33&#45;&gt;32 -->
<g id="edge48" class="edge">
<title>33&#45;&gt;32</title>
<path fill="none" stroke="#c0c0c0" stroke-width="2" d="M801,-436.9656C801,-428.5178 801,-418.2542 801,-408.8064"/>
<polygon fill="#c0c0c0" stroke="#c0c0c0" stroke-width="2" points="804.5001,-408.6265 801,-398.6265 797.5001,-408.6265 804.5001,-408.6265"/>
</g>
<!-- 34&#45;&gt;33 -->
<g id="edge50" class="edge">
<title>34&#45;&gt;33</title>
<path fill="none" stroke="#c0c0c0" stroke-width="2" d="M851.7812,-511.4656C843.4486,-502.2003 833.1516,-490.7507 824.0128,-480.5888"/>
<polygon fill="#c0c0c0" stroke="#c0c0c0" stroke-width="2" points="826.591,-478.2215 817.3017,-473.1265 821.3862,-482.9024 826.591,-478.2215"/>
</g>
<!-- 35 -->
<g id="node36" class="node">
<title>35</title>
<path fill="none" stroke="#d8c356" stroke-width="2" d="M838,-108C838,-108 772,-108 772,-108 766,-108 760,-102 760,-96 760,-96 760,-84 760,-84 760,-78 766,-72 772,-72 772,-72 838,-72 838,-72 844,-72 850,-78 850,-84 850,-84 850,-96 850,-96 850,-102 844,-108 838,-108"/>
<text text-anchor="middle" x="805" y="-87.5" font-family="sans" font-size="10.00" fill="#000000">bcftools_poolsnp</text>
</g>
<!-- 35&#45;&gt;13 -->
<g id="edge18" class="edge">
<title>35&#45;&gt;13</title>
<path fill="none" stroke="#c0c0c0" stroke-width="2" d="M850.1274,-75.4297C889.4985,-62.718 946.2286,-44.4015 984.9676,-31.8939"/>
<polygon fill="#c0c0c0" stroke="#c0c0c0" stroke-width="2" points="986.4559,-35.0913 994.8968,-28.688 984.3051,-28.4299 986.4559,-35.0913"/>
</g>
<!-- 36&#45;&gt;35 -->
<g id="edge53" class="edge">
<title>36&#45;&gt;35</title>
<path fill="none" stroke="#c0c0c0" stroke-width="2" d="M612.3471,-151.3762C648.5709,-139.8358 707.0139,-121.2168 750.0433,-107.5083"/>
<polygon fill="#c0c0c0" stroke="#c0c0c0" stroke-width="2" points="751.3345,-110.7704 759.8002,-104.3999 749.2096,-104.1007 751.3345,-110.7704"/>
</g>
<!-- 37 -->
<g id="node38" class="node">
<title>37</title>
<path fill="none" stroke="#d8b456" stroke-width="2" d="M1116.5,-108C1116.5,-108 1025.5,-108 1025.5,-108 1019.5,-108 1013.5,-102 1013.5,-96 1013.5,-96 1013.5,-84 1013.5,-84 1013.5,-78 1019.5,-72 1025.5,-72 1025.5,-72 1116.5,-72 1116.5,-72 1122.5,-72 1128.5,-78 1128.5,-84 1128.5,-84 1128.5,-96 1128.5,-96 1128.5,-102 1122.5,-108 1116.5,-108"/>
<text text-anchor="middle" x="1071" y="-87.5" font-family="sans" font-size="10.00" fill="#000000">bcftools_freebayes_vg</text>
</g>
<!-- 37&#45;&gt;13 -->
<g id="edge19" class="edge">
<title>37&#45;&gt;13</title>
<path fill="none" stroke="#c0c0c0" stroke-width="2" d="M1060.1493,-71.8314C1055.2977,-63.7079 1049.4783,-53.9637 1044.132,-45.0118"/>
<polygon fill="#c0c0c0" stroke="#c0c0c0" stroke-width="2" points="1047.1292,-43.2041 1038.9968,-36.4133 1041.1194,-46.7933 1047.1292,-43.2041"/>
</g>
<!-- 38&#45;&gt;37 -->
<g id="edge57" class="edge">
<title>38&#45;&gt;37</title>
<path fill="none" stroke="#c0c0c0" stroke-width="2" d="M1071,-143.8314C1071,-136.131 1071,-126.9743 1071,-118.4166"/>
<polygon fill="#c0c0c0" stroke="#c0c0c0" stroke-width="2" points="1074.5001,-118.4132 1071,-108.4133 1067.5001,-118.4133 1074.5001,-118.4132"/>
</g>
<!-- 39 -->
<g id="node40" class="node">
<title>39</title>
<path fill="none" stroke="#97d856" stroke-width="2" d="M1226,-398.5C1226,-398.5 1182,-398.5 1182,-398.5 1176,-398.5 1170,-392.5 1170,-386.5 1170,-386.5 1170,-374.5 1170,-374.5 1170,-368.5 1176,-362.5 1182,-362.5 1182,-362.5 1226,-362.5 1226,-362.5 1232,-362.5 1238,-368.5 1238,-374.5 1238,-374.5 1238,-386.5 1238,-386.5 1238,-392.5 1232,-398.5 1226,-398.5"/>
<text text-anchor="middle" x="1204" y="-378" font-family="sans" font-size="10.00" fill="#000000">freqk_count</text>
</g>
<!-- 39&#45;&gt;13 -->
<g id="edge20" class="edge">
<title>39&#45;&gt;13</title>
<path fill="none" stroke="#c0c0c0" stroke-width="2" d="M1212.9096,-362.499C1225.5046,-335.3462 1247,-281.9776 1247,-234 1247,-234 1247,-234 1247,-162 1247,-78.6376 1134.8469,-40.8426 1071.0591,-26.0881"/>
<polygon fill="#c0c0c0" stroke="#c0c0c0" stroke-width="2" points="1071.7821,-22.6634 1061.2614,-23.9144 1070.2659,-29.4973 1071.7821,-22.6634"/>
</g>
<!-- 40&#45;&gt;39 -->
<g id="edge62" class="edge">
<title>40&#45;&gt;39</title>
<path fill="none" stroke="#c0c0c0" stroke-width="2" d="M1091.8267,-436.9656C1112.5616,-426.5281 1138.8028,-413.3188 1160.6905,-402.3011"/>
<polygon fill="#c0c0c0" stroke="#c0c0c0" stroke-width="2" points="1162.4172,-405.3504 1169.7757,-397.7278 1159.2698,-399.0978 1162.4172,-405.3504"/>
</g>
<!-- 41&#45;&gt;39 -->
<g id="edge63" class="edge">
<title>41&#45;&gt;39</title>
<path fill="none" stroke="#c0c0c0" stroke-width="2" d="M1204,-436.9656C1204,-428.5178 1204,-418.2542 1204,-408.8064"/>
<polygon fill="#c0c0c0" stroke="#c0c0c0" stroke-width="2" points="1207.5001,-408.6265 1204,-398.6265 1200.5001,-408.6265 1207.5001,-408.6265"/>
</g>
<!-- 42 -->
<g id="node43" class="node">
<title>42</title>
<path fill="none" stroke="#80d856" stroke-width="2" d="M1242.5,-547.5C1242.5,-547.5 1177.5,-547.5 1177.5,-547.5 1171.5,-547.5 1165.5,-541.5 1165.5,-535.5 1165.5,-535.5 1165.5,-523.5 1165.5,-523.5 1165.5,-517.5 1171.5,-511.5 1177.5,-511.5 1177.5,-511.5 1242.5,-511.5 1242.5,-511.5 1248.5,-511.5 1254.5,-517.5 1254.5,-523.5 1254.5,-523.5 1254.5,-535.5 1254.5,-535.5 1254.5,-541.5 1248.5,-547.5 1242.5,-547.5"/>
<text text-anchor="middle" x="1210" y="-527" font-family="sans" font-size="10.00" fill="#000000">freqk_var_dedup</text>
</g>
<!-- 42&#45;&gt;41 -->
<g id="edge65" class="edge">
<title>42&#45;&gt;41</title>
<path fill="none" stroke="#c0c0c0" stroke-width="2" d="M1208.5476,-511.4656C1207.8672,-503.0178 1207.0406,-492.7542 1206.2797,-483.3064"/>
<polygon fill="#c0c0c0" stroke="#c0c0c0" stroke-width="2" points="1209.7514,-482.8132 1205.4599,-473.1265 1202.774,-483.3752 1209.7514,-482.8132"/>
</g>
<!-- 43&#45;&gt;42 -->
<g id="edge69" class="edge">
<title>43&#45;&gt;42</title>
<path fill="none" stroke="#c0c0c0" stroke-width="2" d="M1201.6628,-585.9656C1202.9101,-577.5178 1204.4256,-567.2542 1205.8205,-557.8064"/>
<polygon fill="#c0c0c0" stroke="#c0c0c0" stroke-width="2" points="1209.3253,-558.0305 1207.3236,-547.6265 1202.4004,-557.008 1209.3253,-558.0305"/>
</g>
<!-- 44&#45;&gt;13 -->
<g id="edge21" class="edge">
<title>44&#45;&gt;13</title>
<path fill="none" stroke="#c0c0c0" stroke-width="2" d="M1356.968,-287.806C1351.0206,-243.5746 1329.4967,-129.8067 1261,-72 1232.7107,-48.1256 1130.8067,-31.3132 1071.5502,-23.3065"/>
<polygon fill="#c0c0c0" stroke="#c0c0c0" stroke-width="2" points="1071.7355,-19.8006 1061.3631,-21.9599 1070.8181,-26.7402 1071.7355,-19.8006"/>
</g>
<!-- 45 -->
<g id="node46" class="node">
<title>45</title>
<path fill="none" stroke="#d87556" stroke-width="2" d="M1514,-252C1514,-252 1472,-252 1472,-252 1466,-252 1460,-246 1460,-240 1460,-240 1460,-228 1460,-228 1460,-222 1466,-216 1472,-216 1472,-216 1514,-216 1514,-216 1520,-216 1526,-222 1526,-228 1526,-228 1526,-240 1526,-240 1526,-246 1520,-252 1514,-252"/>
<text text-anchor="middle" x="1493" y="-231.5" font-family="sans" font-size="10.00" fill="#000000">all_per_sim</text>
</g>
<!-- 46 -->
<g id="node47" class="node">
<title>46</title>
<path fill="none" stroke="#d8bc56" stroke-width="2" d="M1487,-401C1487,-401 1399,-401 1399,-401 1393,-401 1387,-395 1387,-389 1387,-389 1387,-372 1387,-372 1387,-366 1393,-360 1399,-360 1399,-360 1487,-360 1487,-360 1493,-360 1499,-366 1499,-372 1499,-372 1499,-389 1499,-389 1499,-395 1493,-401 1487,-401"/>
<text text-anchor="middle" x="1443" y="-389" font-family="sans" font-size="10.00" fill="#000000">bcftools_get_samples</text>
<text text-anchor="middle" x="1443" y="-378" font-family="sans" font-size="10.00" fill="#000000">PID: 0</text>
<text text-anchor="middle" x="1443" y="-367" font-family="sans" font-size="10.00" fill="#000000">SID: 3</text>
</g>
<!-- 46&#45;&gt;45 -->
<g id="edge74" class="edge">
<title>46&#45;&gt;45</title>
<path fill="none" stroke="#c0c0c0" stroke-width="2" d="M1450.0577,-359.8208C1458.7845,-334.2513 1473.6763,-290.6184 1483.4273,-262.0481"/>
<polygon fill="#c0c0c0" stroke="#c0c0c0" stroke-width="2" points="1486.8485,-262.8596 1486.7662,-252.265 1480.2237,-260.5985 1486.8485,-262.8596"/>
</g>
<!-- 47 -->
<g id="node48" class="node">
<title>47</title>
<path fill="none" stroke="#d8cb56" stroke-width="2" d="M1483.5,-696.5C1483.5,-696.5 1402.5,-696.5 1402.5,-696.5 1396.5,-696.5 1390.5,-690.5 1390.5,-684.5 1390.5,-684.5 1390.5,-672.5 1390.5,-672.5 1390.5,-666.5 1396.5,-660.5 1402.5,-660.5 1402.5,-660.5 1483.5,-660.5 1483.5,-660.5 1489.5,-660.5 1495.5,-666.5 1495.5,-672.5 1495.5,-672.5 1495.5,-684.5 1495.5,-684.5 1495.5,-690.5 1489.5,-696.5 1483.5,-696.5"/>
<text text-anchor="middle" x="1443" y="-676" font-family="sans" font-size="10.00" fill="#000000">bcftools_remove_ref</text>
</g>
<!-- 47&#45;&gt;46 -->
<g id="edge76" class="edge">
<title>47&#45;&gt;46</title>
<path fill="none" stroke="#c0c0c0" stroke-width="2" d="M1443,-660.3074C1443,-610.8352 1443,-473.4246 1443,-411.4825"/>
<polygon fill="#c0c0c0" stroke="#c0c0c0" stroke-width="2" points="1446.5001,-411.1767 1443,-401.1767 1439.5001,-411.1768 1446.5001,-411.1767"/>
</g>
<!-- 48 -->
<g id="node49" class="node">
<title>48</title>
<path fill="none" stroke="#56a9d8" stroke-width="2" d="M1556,-848C1556,-848 1526,-848 1526,-848 1520,-848 1514,-842 1514,-836 1514,-836 1514,-824 1514,-824 1514,-818 1520,-812 1526,-812 1526,-812 1556,-812 1556,-812 1562,-812 1568,-818 1568,-824 1568,-824 1568,-836 1568,-836 1568,-842 1562,-848 1556,-848"/>
<text text-anchor="middle" x="1541" y="-827.5" font-family="sans" font-size="10.00" fill="#000000">slim</text>
</g>
<!-- 48&#45;&gt;47 -->
<g id="edge77" class="edge">
<title>48&#45;&gt;47</title>
<path fill="none" stroke="#c0c0c0" stroke-width="2" d="M1515.2016,-811.8139C1503.1861,-802.2783 1489.4848,-789.7325 1480,-776 1465.3006,-754.7176 1455.4845,-726.8244 1449.6793,-706.3268"/>
<polygon fill="#c0c0c0" stroke="#c0c0c0" stroke-width="2" points="1453.0512,-705.3878 1447.0761,-696.6385 1446.291,-707.2042 1453.0512,-705.3878"/>
</g>
<!-- 56 -->
<g id="node57" class="node">
<title>56</title>
<path fill="none" stroke="#56b9d8" stroke-width="2" d="M1581,-776C1581,-776 1501,-776 1501,-776 1495,-776 1489,-770 1489,-764 1489,-764 1489,-747 1489,-747 1489,-741 1495,-735 1501,-735 1501,-735 1581,-735 1581,-735 1587,-735 1593,-741 1593,-747 1593,-747 1593,-764 1593,-764 1593,-770 1587,-776 1581,-776"/>
<text text-anchor="middle" x="1541" y="-764" font-family="sans" font-size="10.00" fill="#000000">seqkit_get_samples</text>
<text text-anchor="middle" x="1541" y="-753" font-family="sans" font-size="10.00" fill="#000000">PID: 0</text>
<text text-anchor="middle" x="1541" y="-742" font-family="sans" font-size="10.00" fill="#000000">SID: 3</text>
</g>
<!-- 48&#45;&gt;56 -->
<g id="edge86" class="edge">
<title>48&#45;&gt;56</title>
<path fill="none" stroke="#c0c0c0" stroke-width="2" d="M1541,-811.9656C1541,-804.3118 1541,-795.1674 1541,-786.4898"/>
<polygon fill="#c0c0c0" stroke="#c0c0c0" stroke-width="2" points="1544.5001,-786.2678 1541,-776.2679 1537.5001,-786.2679 1544.5001,-786.2678"/>
</g>
<!-- 61 -->
<g id="node62" class="node">
<title>61</title>
<path fill="none" stroke="#56b9d8" stroke-width="2" d="M1704,-776C1704,-776 1624,-776 1624,-776 1618,-776 1612,-770 1612,-764 1612,-764 1612,-747 1612,-747 1612,-741 1618,-735 1624,-735 1624,-735 1704,-735 1704,-735 1710,-735 1716,-741 1716,-747 1716,-747 1716,-764 1716,-764 1716,-770 1710,-776 1704,-776"/>
<text text-anchor="middle" x="1664" y="-764" font-family="sans" font-size="10.00" fill="#000000">seqkit_get_samples</text>
<text text-anchor="middle" x="1664" y="-753" font-family="sans" font-size="10.00" fill="#000000">PID: 1</text>
<text text-anchor="middle" x="1664" y="-742" font-family="sans" font-size="10.00" fill="#000000">SID: 3</text>
</g>
<!-- 48&#45;&gt;61 -->
<g id="edge91" class="edge">
<title>48&#45;&gt;61</title>
<path fill="none" stroke="#c0c0c0" stroke-width="2" d="M1568.2977,-813.466C1583.7266,-804.1209 1603.3667,-792.225 1620.8348,-781.6448"/>
<polygon fill="#c0c0c0" stroke="#c0c0c0" stroke-width="2" points="1622.9975,-784.4268 1629.7376,-776.2524 1619.371,-778.4395 1622.9975,-784.4268"/>
</g>
<!-- 49 -->
<g id="node50" class="node">
<title>49</title>
<path fill="none" stroke="#d88d56" stroke-width="2" d="M1577,-920C1577,-920 1505,-920 1505,-920 1499,-920 1493,-914 1493,-908 1493,-908 1493,-896 1493,-896 1493,-890 1499,-884 1505,-884 1505,-884 1577,-884 1577,-884 1583,-884 1589,-890 1589,-896 1589,-896 1589,-908 1589,-908 1589,-914 1583,-920 1577,-920"/>
<text text-anchor="middle" x="1541" y="-905" font-family="sans" font-size="10.00" fill="#000000">ancestral_genome</text>
<text text-anchor="middle" x="1541" y="-894" font-family="sans" font-size="10.00" fill="#000000">ID: 3</text>
</g>
<!-- 49&#45;&gt;48 -->
<g id="edge78" class="edge">
<title>49&#45;&gt;48</title>
<path fill="none" stroke="#c0c0c0" stroke-width="2" d="M1541,-883.8314C1541,-876.131 1541,-866.9743 1541,-858.4166"/>
<polygon fill="#c0c0c0" stroke="#c0c0c0" stroke-width="2" points="1544.5001,-858.4132 1541,-848.4133 1537.5001,-858.4133 1544.5001,-858.4132"/>
</g>
<!-- 50 -->
<g id="node51" class="node">
<title>50</title>
<path fill="none" stroke="#68d856" stroke-width="2" d="M1567,-324C1567,-324 1505,-324 1505,-324 1499,-324 1493,-318 1493,-312 1493,-312 1493,-300 1493,-300 1493,-294 1499,-288 1505,-288 1505,-288 1567,-288 1567,-288 1573,-288 1579,-294 1579,-300 1579,-300 1579,-312 1579,-312 1579,-318 1573,-324 1567,-324"/>
<text text-anchor="middle" x="1536" y="-303.5" font-family="sans" font-size="10.00" fill="#000000">kmer_distances</text>
</g>
<!-- 50&#45;&gt;45 -->
<g id="edge75" class="edge">
<title>50&#45;&gt;45</title>
<path fill="none" stroke="#c0c0c0" stroke-width="2" d="M1525.1493,-287.8314C1520.2977,-279.7079 1514.4783,-269.9637 1509.132,-261.0118"/>
<polygon fill="#c0c0c0" stroke="#c0c0c0" stroke-width="2" points="1512.1292,-259.2041 1503.9968,-252.4133 1506.1194,-262.7933 1512.1292,-259.2041"/>
</g>
<!-- 51 -->
<g id="node52" class="node">
<title>51</title>
<path fill="none" stroke="#d6d856" stroke-width="2" d="M1559,-398.5C1559,-398.5 1529,-398.5 1529,-398.5 1523,-398.5 1517,-392.5 1517,-386.5 1517,-386.5 1517,-374.5 1517,-374.5 1517,-368.5 1523,-362.5 1529,-362.5 1529,-362.5 1559,-362.5 1559,-362.5 1565,-362.5 1571,-368.5 1571,-374.5 1571,-374.5 1571,-386.5 1571,-386.5 1571,-392.5 1565,-398.5 1559,-398.5"/>
<text text-anchor="middle" x="1544" y="-378" font-family="sans" font-size="10.00" fill="#000000">cbind</text>
</g>
<!-- 51&#45;&gt;50 -->
<g id="edge79" class="edge">
<title>51&#45;&gt;50</title>
<path fill="none" stroke="#c0c0c0" stroke-width="2" d="M1542.0634,-362.4656C1541.1563,-354.0178 1540.0541,-343.7542 1539.0396,-334.3064"/>
<polygon fill="#c0c0c0" stroke="#c0c0c0" stroke-width="2" points="1542.4942,-333.6956 1537.9465,-324.1265 1535.5343,-334.4431 1542.4942,-333.6956"/>
</g>
<!-- 52 -->
<g id="node53" class="node">
<title>52</title>
<path fill="none" stroke="#c6d856" stroke-width="2" d="M1582.5,-473C1582.5,-473 1497.5,-473 1497.5,-473 1491.5,-473 1485.5,-467 1485.5,-461 1485.5,-461 1485.5,-449 1485.5,-449 1485.5,-443 1491.5,-437 1497.5,-437 1497.5,-437 1582.5,-437 1582.5,-437 1588.5,-437 1594.5,-443 1594.5,-449 1594.5,-449 1594.5,-461 1594.5,-461 1594.5,-467 1588.5,-473 1582.5,-473"/>
<text text-anchor="middle" x="1540" y="-452.5" font-family="sans" font-size="10.00" fill="#000000">counting_bloom_filter</text>
</g>
<!-- 52&#45;&gt;51 -->
<g id="edge80" class="edge">
<title>52&#45;&gt;51</title>
<path fill="none" stroke="#c0c0c0" stroke-width="2" d="M1540.9683,-436.9656C1541.4219,-428.5178 1541.9729,-418.2542 1542.4802,-408.8064"/>
<polygon fill="#c0c0c0" stroke="#c0c0c0" stroke-width="2" points="1545.9855,-408.7998 1543.0268,-398.6265 1538.9956,-408.4244 1545.9855,-408.7998"/>
</g>
<!-- 53 -->
<g id="node54" class="node">
<title>53</title>
<path fill="none" stroke="#70d856" stroke-width="2" d="M1555,-547.5C1555,-547.5 1525,-547.5 1525,-547.5 1519,-547.5 1513,-541.5 1513,-535.5 1513,-535.5 1513,-523.5 1513,-523.5 1513,-517.5 1519,-511.5 1525,-511.5 1525,-511.5 1555,-511.5 1555,-511.5 1561,-511.5 1567,-517.5 1567,-523.5 1567,-523.5 1567,-535.5 1567,-535.5 1567,-541.5 1561,-547.5 1555,-547.5"/>
<text text-anchor="middle" x="1540" y="-527" font-family="sans" font-size="10.00" fill="#000000">kmc</text>
</g>
<!-- 53&#45;&gt;52 -->
<g id="edge82" class="edge">
<title>53&#45;&gt;52</title>
<path fill="none" stroke="#c0c0c0" stroke-width="2" d="M1540,-511.4656C1540,-503.0178 1540,-492.7542 1540,-483.3064"/>
<polygon fill="#c0c0c0" stroke="#c0c0c0" stroke-width="2" points="1543.5001,-483.1265 1540,-473.1265 1536.5001,-483.1265 1543.5001,-483.1265"/>
</g>
<!-- 54 -->
<g id="node55" class="node">
<title>54</title>
<path fill="none" stroke="#a7d856" stroke-width="2" d="M1555,-622C1555,-622 1525,-622 1525,-622 1519,-622 1513,-616 1513,-610 1513,-610 1513,-598 1513,-598 1513,-592 1519,-586 1525,-586 1525,-586 1555,-586 1555,-586 1561,-586 1567,-592 1567,-598 1567,-598 1567,-610 1567,-610 1567,-616 1561,-622 1555,-622"/>
<text text-anchor="middle" x="1540" y="-601.5" font-family="sans" font-size="10.00" fill="#000000">fastp</text>
</g>
<!-- 54&#45;&gt;53 -->
<g id="edge83" class="edge">
<title>54&#45;&gt;53</title>
<path fill="none" stroke="#c0c0c0" stroke-width="2" d="M1540,-585.9656C1540,-577.5178 1540,-567.2542 1540,-557.8064"/>
<polygon fill="#c0c0c0" stroke="#c0c0c0" stroke-width="2" points="1543.5001,-557.6265 1540,-547.6265 1536.5001,-557.6265 1543.5001,-557.6265"/>
</g>
<!-- 55 -->
<g id="node56" class="node">
<title>55</title>
<path fill="none" stroke="#78d856" stroke-width="2" d="M1556,-696.5C1556,-696.5 1526,-696.5 1526,-696.5 1520,-696.5 1514,-690.5 1514,-684.5 1514,-684.5 1514,-672.5 1514,-672.5 1514,-666.5 1520,-660.5 1526,-660.5 1526,-660.5 1556,-660.5 1556,-660.5 1562,-660.5 1568,-666.5 1568,-672.5 1568,-672.5 1568,-684.5 1568,-684.5 1568,-690.5 1562,-696.5 1556,-696.5"/>
<text text-anchor="middle" x="1541" y="-676" font-family="sans" font-size="10.00" fill="#000000">iss</text>
</g>
<!-- 55&#45;&gt;54 -->
<g id="edge84" class="edge">
<title>55&#45;&gt;54</title>
<path fill="none" stroke="#c0c0c0" stroke-width="2" d="M1540.7579,-660.4656C1540.6445,-652.0178 1540.5068,-641.7542 1540.38,-632.3064"/>
<polygon fill="#c0c0c0" stroke="#c0c0c0" stroke-width="2" points="1543.8773,-632.0786 1540.2433,-622.1265 1536.8779,-632.1726 1543.8773,-632.0786"/>
</g>
<!-- 56&#45;&gt;55 -->
<g id="edge85" class="edge">
<title>56&#45;&gt;55</title>
<path fill="none" stroke="#c0c0c0" stroke-width="2" d="M1541,-734.8654C1541,-726.1912 1541,-715.9623 1541,-706.6158"/>
<polygon fill="#c0c0c0" stroke="#c0c0c0" stroke-width="2" points="1544.5001,-706.5682 1541,-696.5683 1537.5001,-706.5683 1544.5001,-706.5682"/>
</g>
<!-- 57 -->
<g id="node58" class="node">
<title>57</title>
<path fill="none" stroke="#c6d856" stroke-width="2" d="M1709.5,-473C1709.5,-473 1624.5,-473 1624.5,-473 1618.5,-473 1612.5,-467 1612.5,-461 1612.5,-461 1612.5,-449 1612.5,-449 1612.5,-443 1618.5,-437 1624.5,-437 1624.5,-437 1709.5,-437 1709.5,-437 1715.5,-437 1721.5,-443 1721.5,-449 1721.5,-449 1721.5,-461 1721.5,-461 1721.5,-467 1715.5,-473 1709.5,-473"/>
<text text-anchor="middle" x="1667" y="-452.5" font-family="sans" font-size="10.00" fill="#000000">counting_bloom_filter</text>
</g>
<!-- 57&#45;&gt;51 -->
<g id="edge81" class="edge">
<title>57&#45;&gt;51</title>
<path fill="none" stroke="#c0c0c0" stroke-width="2" d="M1637.2251,-436.9656C1619.995,-426.5295 1598.1898,-413.3223 1580.0007,-402.3053"/>
<polygon fill="#c0c0c0" stroke="#c0c0c0" stroke-width="2" points="1581.7646,-399.2818 1571.3979,-397.0947 1578.1381,-405.2691 1581.7646,-399.2818"/>
</g>
<!-- 58 -->
<g id="node59" class="node">
<title>58</title>
<path fill="none" stroke="#70d856" stroke-width="2" d="M1682,-547.5C1682,-547.5 1652,-547.5 1652,-547.5 1646,-547.5 1640,-541.5 1640,-535.5 1640,-535.5 1640,-523.5 1640,-523.5 1640,-517.5 1646,-511.5 1652,-511.5 1652,-511.5 1682,-511.5 1682,-511.5 1688,-511.5 1694,-517.5 1694,-523.5 1694,-523.5 1694,-535.5 1694,-535.5 1694,-541.5 1688,-547.5 1682,-547.5"/>
<text text-anchor="middle" x="1667" y="-527" font-family="sans" font-size="10.00" fill="#000000">kmc</text>
</g>
<!-- 58&#45;&gt;57 -->
<g id="edge87" class="edge">
<title>58&#45;&gt;57</title>
<path fill="none" stroke="#c0c0c0" stroke-width="2" d="M1667,-511.4656C1667,-503.0178 1667,-492.7542 1667,-483.3064"/>
<polygon fill="#c0c0c0" stroke="#c0c0c0" stroke-width="2" points="1670.5001,-483.1265 1667,-473.1265 1663.5001,-483.1265 1670.5001,-483.1265"/>
</g>
<!-- 59 -->
<g id="node60" class="node">
<title>59</title>
<path fill="none" stroke="#a7d856" stroke-width="2" d="M1681,-622C1681,-622 1651,-622 1651,-622 1645,-622 1639,-616 1639,-610 1639,-610 1639,-598 1639,-598 1639,-592 1645,-586 1651,-586 1651,-586 1681,-586 1681,-586 1687,-586 1693,-592 1693,-598 1693,-598 1693,-610 1693,-610 1693,-616 1687,-622 1681,-622"/>
<text text-anchor="middle" x="1666" y="-601.5" font-family="sans" font-size="10.00" fill="#000000">fastp</text>
</g>
<!-- 59&#45;&gt;58 -->
<g id="edge88" class="edge">
<title>59&#45;&gt;58</title>
<path fill="none" stroke="#c0c0c0" stroke-width="2" d="M1666.2421,-585.9656C1666.3555,-577.5178 1666.4932,-567.2542 1666.62,-557.8064"/>
<polygon fill="#c0c0c0" stroke="#c0c0c0" stroke-width="2" points="1670.1221,-557.6726 1666.7567,-547.6265 1663.1227,-557.5786 1670.1221,-557.6726"/>
</g>
<!-- 60 -->
<g id="node61" class="node">
<title>60</title>
<path fill="none" stroke="#78d856" stroke-width="2" d="M1679,-696.5C1679,-696.5 1649,-696.5 1649,-696.5 1643,-696.5 1637,-690.5 1637,-684.5 1637,-684.5 1637,-672.5 1637,-672.5 1637,-666.5 1643,-660.5 1649,-660.5 1649,-660.5 1679,-660.5 1679,-660.5 1685,-660.5 1691,-666.5 1691,-672.5 1691,-672.5 1691,-684.5 1691,-684.5 1691,-690.5 1685,-696.5 1679,-696.5"/>
<text text-anchor="middle" x="1664" y="-676" font-family="sans" font-size="10.00" fill="#000000">iss</text>
</g>
<!-- 60&#45;&gt;59 -->
<g id="edge89" class="edge">
<title>60&#45;&gt;59</title>
<path fill="none" stroke="#c0c0c0" stroke-width="2" d="M1664.4841,-660.4656C1664.7109,-652.0178 1664.9865,-641.7542 1665.2401,-632.3064"/>
<polygon fill="#c0c0c0" stroke="#c0c0c0" stroke-width="2" points="1668.7437,-632.2169 1665.5134,-622.1265 1661.7462,-632.0289 1668.7437,-632.2169"/>
</g>
<!-- 61&#45;&gt;60 -->
<g id="edge90" class="edge">
<title>61&#45;&gt;60</title>
<path fill="none" stroke="#c0c0c0" stroke-width="2" d="M1664,-734.8654C1664,-726.1912 1664,-715.9623 1664,-706.6158"/>
<polygon fill="#c0c0c0" stroke="#c0c0c0" stroke-width="2" points="1667.5001,-706.5682 1664,-696.5683 1660.5001,-706.5683 1667.5001,-706.5682"/>
</g>
</g>
</svg>
